<svg id="Ebene_1" data-name="Ebene 1" xmlns="http://www.w3.org/2000/svg"><defs><style></style></defs><title>GP_logo_black_rgb</title> <path xmlns="http://www.w3.org/2000/svg" class="cls-1" d="M208,319.49V282.66a118.92,118.92,0,0,0,73-109.85c0-61.76-46.86-112.52-106.79-118.34V93.36A80.4,80.4,0,0,1,208,238.91V165.09h-33.8V326c-3.93.3-7.91.46-11.91.46-84.64,0-153.27-69-153.27-154s68.63-154,153.27-154,153.26,69,153.26,154A154,154,0,0,1,208,319.49ZM151.2,264.68V165.09H117.4v73.82A80.39,80.39,0,0,1,151.19,93.36V54.47C91.26,60.29,44.41,111.05,44.41,172.81S91.26,285.33,151.2,291.14Z" transform="translate(-9.06 -18.39)"/></svg>
