<svg width="201" height="199" viewBox="0 0 201 199" fill="none" xmlns="http://www.w3.org/2000/svg">
<path fill-rule="evenodd" clip-rule="evenodd" d="M90.2917 80.1393H114.988C122.794 36.086 135.501 1 135.501 1H164.749C164.749 1 121.439 161.08 149.562 161.08C177.686 161.08 186.685 119.933 186.685 119.933H200.184C200.184 141.352 186.123 170.099 168.124 185.882C150.126 201.664 110.191 214.628 109.066 145.861C108.861 133.365 109.604 120.627 110.957 108.147H87.0916C79.6728 157.459 64.6831 198.845 64.6831 198.845H35.4354C35.4354 198.845 78.7449 38.7652 50.6222 38.7652C22.4988 38.7652 13.4996 79.9126 13.4996 79.9126C13.4996 79.9126 3.37531 79.9126 0 79.9126C0 58.4934 14.0617 29.7467 32.0601 13.9638C50.0584 -1.81901 89.9934 -14.7828 91.1185 53.9841C91.2602 62.6419 90.9471 71.4158 90.2917 80.1393Z" fill="black"/>
</svg>
